<svg width="36" height="35" viewBox="0 0 36 35" fill="none" xmlns="http://www.w3.org/2000/svg">
<g id="sms-tracking_svgrepo.com">
<path id="Vector" d="M9.25001 18.9583C5.22501 18.9583 1.95834 22.2104 1.95834 26.25C1.95834 30.2896 5.22501 33.5417 9.25001 33.5417C13.275 33.5417 16.5417 30.275 16.5417 26.25C16.5417 22.225 13.2896 18.9583 9.25001 18.9583ZM6.27501 23.275H9.25001C9.80418 23.275 10.2417 23.7271 10.2417 24.2667C10.2417 24.8062 9.80418 25.2583 9.25001 25.2583H6.27501C5.72084 25.2583 5.28334 24.8062 5.28334 24.2667C5.28334 23.7271 5.72084 23.275 6.27501 23.275ZM12.225 29.225H6.27501C5.72084 29.225 5.28334 28.7729 5.28334 28.2333C5.28334 27.6937 5.73543 27.2417 6.27501 27.2417H12.2396C12.7938 27.2417 13.2313 27.6937 13.2313 28.2333C13.2313 28.7729 12.7792 29.225 12.225 29.225Z" fill="#292D32"/>
<path id="Vector_2" d="M25.2917 4.375H10.7083C6.33332 4.375 3.41666 6.5625 3.41666 11.6667V16.2458C3.41666 17.3104 4.51041 17.9813 5.48749 17.5583C7.09166 16.8583 8.91457 16.5958 10.825 16.9021C14.6458 17.5292 17.7667 20.5479 18.5396 24.3396C18.7583 25.4479 18.7875 26.5271 18.6417 27.5625C18.525 28.4229 19.225 29.1813 20.0854 29.1813H25.2917C29.6667 29.1813 32.5833 26.9938 32.5833 21.8896V11.6667C32.5833 6.5625 29.6667 4.375 25.2917 4.375ZM25.9771 12.5271L21.4125 16.1729C20.45 16.9458 19.225 17.325 18 17.325C16.775 17.325 15.5354 16.9458 14.5875 16.1729L10.0229 12.5271C9.55624 12.1479 9.48332 11.4479 9.84791 10.9813C10.2271 10.5146 10.9125 10.4271 11.3792 10.8063L15.9437 14.4521C17.0521 15.3417 18.9333 15.3417 20.0417 14.4521L24.6062 10.8063C25.0729 10.4271 25.7729 10.5 26.1375 10.9813C26.5167 11.4479 26.4437 12.1479 25.9771 12.5271Z" fill="#292D32"/>
</g>
</svg>
